<svg width="41" height="17" viewBox="0 0 41 17" fill="none" xmlns="http://www.w3.org/2000/svg">
<path d="M2.22921e-05 13.0909V-2.81334e-05H1.58525V11.6846H7.67048V13.0909H2.22921e-05ZM13.9091 13.2954C13.0227 13.2954 12.2451 13.0845 11.576 12.6626C10.9112 12.2407 10.3914 11.6505 10.0164 10.892C9.64562 10.1335 9.46025 9.24713 9.46025 8.23293C9.46025 7.2102 9.64562 6.31744 10.0164 5.55466C10.3914 4.79188 10.9112 4.19955 11.576 3.77767C12.2451 3.3558 13.0227 3.14486 13.9091 3.14486C14.7955 3.14486 15.571 3.3558 16.2358 3.77767C16.9049 4.19955 17.4247 4.79188 17.7955 5.55466C18.1705 6.31744 18.358 7.2102 18.358 8.23293C18.358 9.24713 18.1705 10.1335 17.7955 10.892C17.4247 11.6505 16.9049 12.2407 16.2358 12.6626C15.571 13.0845 14.7955 13.2954 13.9091 13.2954ZM13.9091 11.9403C14.5824 11.9403 15.1364 11.7677 15.571 11.4226C16.0057 11.0774 16.3274 10.6236 16.5362 10.0611C16.7451 9.49855 16.8495 8.88918 16.8495 8.23293C16.8495 7.57668 16.7451 6.96517 16.5362 6.39841C16.3274 5.83165 16.0057 5.37355 15.571 5.02412C15.1364 4.67469 14.5824 4.49997 13.9091 4.49997C13.2358 4.49997 12.6818 4.67469 12.2472 5.02412C11.8125 5.37355 11.4908 5.83165 11.282 6.39841C11.0732 6.96517 10.9688 7.57668 10.9688 8.23293C10.9688 8.88918 11.0732 9.49855 11.282 10.0611C11.4908 10.6236 11.8125 11.0774 12.2472 11.4226C12.6818 11.7677 13.2358 11.9403 13.9091 11.9403ZM24.6238 16.9772C23.8951 16.9772 23.2687 16.8835 22.7445 16.696C22.2204 16.5128 21.7836 16.2699 21.4341 15.9673C21.089 15.669 20.8141 15.3494 20.6096 15.0085L21.8113 14.1647C21.9476 14.3437 22.1202 14.5483 22.329 14.7784C22.5378 15.0128 22.8234 15.2152 23.1856 15.3856C23.552 15.5603 24.0314 15.6477 24.6238 15.6477C25.4164 15.6477 26.0705 15.4559 26.5861 15.0724C27.1018 14.6889 27.3596 14.088 27.3596 13.2699V11.2755H27.2317C27.1209 11.4545 26.9633 11.6761 26.7587 11.9403C26.5584 12.2003 26.2687 12.4325 25.8894 12.637C25.5144 12.8373 25.0073 12.9375 24.3681 12.9375C23.5755 12.9375 22.8638 12.75 22.2332 12.375C21.6067 12 21.1103 11.4545 20.7438 10.7386C20.3816 10.0227 20.2005 9.15338 20.2005 8.13065C20.2005 7.12497 20.3773 6.24926 20.731 5.50352C21.0847 4.75352 21.5769 4.17398 22.2076 3.76489C22.8383 3.35153 23.567 3.14486 24.3937 3.14486C25.0329 3.14486 25.54 3.25139 25.915 3.46446C26.2942 3.67327 26.584 3.9119 26.7843 4.18037C26.9888 4.44457 27.1465 4.6619 27.2573 4.83236H27.4107V3.2727H28.8681V13.3721C28.8681 14.2159 28.6763 14.902 28.2928 15.4304C27.9136 15.963 27.4022 16.353 26.7587 16.6001C26.1195 16.8515 25.4079 16.9772 24.6238 16.9772ZM24.5726 11.5824C25.1778 11.5824 25.6891 11.4439 26.1067 11.1669C26.5243 10.8899 26.8418 10.4914 27.0591 9.97156C27.2765 9.45168 27.3851 8.82952 27.3851 8.10509C27.3851 7.3977 27.2786 6.77341 27.0655 6.23222C26.8525 5.69102 26.5371 5.26702 26.1195 4.9602C25.7019 4.65338 25.1863 4.49997 24.5726 4.49997C23.9334 4.49997 23.4008 4.6619 22.9746 4.98577C22.5528 5.30963 22.2353 5.74429 22.0222 6.28975C21.8134 6.8352 21.709 7.44031 21.709 8.10509C21.709 8.7869 21.8155 9.38989 22.0286 9.91403C22.2459 10.4339 22.5655 10.843 22.9874 11.1413C23.4136 11.4353 23.942 11.5824 24.5726 11.5824ZM35.6181 13.2954C34.7317 13.2954 33.954 13.0845 33.285 12.6626C32.6202 12.2407 32.1003 11.6505 31.7253 10.892C31.3546 10.1335 31.1692 9.24713 31.1692 8.23293C31.1692 7.2102 31.3546 6.31744 31.7253 5.55466C32.1003 4.79188 32.6202 4.19955 33.285 3.77767C33.954 3.3558 34.7317 3.14486 35.6181 3.14486C36.5045 3.14486 37.28 3.3558 37.9448 3.77767C38.6138 4.19955 39.1337 4.79188 39.5045 5.55466C39.8795 6.31744 40.067 7.2102 40.067 8.23293C40.067 9.24713 39.8795 10.1335 39.5045 10.892C39.1337 11.6505 38.6138 12.2407 37.9448 12.6626C37.28 13.0845 36.5045 13.2954 35.6181 13.2954ZM35.6181 11.9403C36.2914 11.9403 36.8454 11.7677 37.28 11.4226C37.7147 11.0774 38.0364 10.6236 38.2452 10.0611C38.454 9.49855 38.5584 8.88918 38.5584 8.23293C38.5584 7.57668 38.454 6.96517 38.2452 6.39841C38.0364 5.83165 37.7147 5.37355 37.28 5.02412C36.8454 4.67469 36.2914 4.49997 35.6181 4.49997C34.9448 4.49997 34.3908 4.67469 33.9562 5.02412C33.5215 5.37355 33.1998 5.83165 32.991 6.39841C32.7822 6.96517 32.6778 7.57668 32.6778 8.23293C32.6778 8.88918 32.7822 9.49855 32.991 10.0611C33.1998 10.6236 33.5215 11.0774 33.9562 11.4226C34.3908 11.7677 34.9448 11.9403 35.6181 11.9403Z" fill="black"/>
</svg>
